<svg preserveAspectRatio="none" width="100%" height="100%" overflow="visible" style="display: block;" viewBox="0 0 495.692 618.136" fill="none" xmlns="http://www.w3.org/2000/svg">
<path id="Vector 93" d="M59.3474 598.875L63.1012 596.692L63.8278 597.42L65.0387 598.875L66.0075 599.482H68.066C68.5504 599.482 68.7926 598.875 69.277 598.875H71.5777L72.6676 600.452L73.1519 602.029L71.5777 604.333V606.88L75.2105 608.214L75.9371 610.639L77.8745 613.671L79.3277 615.005C80.1349 615.369 81.8222 616.097 82.1128 616.097C82.4761 616.097 84.1714 615.854 84.7768 616.097C85.2612 616.291 87.1583 616.501 88.0463 616.582L90.7104 614.156L94.3432 615.005C94.9486 614.722 96.2807 614.156 96.765 614.156H100.156H103.667L105.484 613.671L108.995 608.214L109.48 606.88C109.682 606.516 110.206 605.594 110.691 604.818C111.175 604.042 111.458 604.495 111.538 604.818C112.426 604.656 114.469 604.236 115.534 603.848C116.866 603.363 117.714 603.848 118.077 603.848C118.368 603.848 120.943 604.171 122.195 604.333L123.89 605.303C125.02 605.424 127.377 605.691 127.765 605.788C128.152 605.885 128.976 605.505 129.339 605.303V596.328C129.702 595.722 130.671 595.843 131.155 595.358C131.543 594.97 132.689 595.197 133.214 595.358L134.425 594.145C134.667 593.903 135.757 593.539 136.362 592.933C136.968 592.326 137.694 591.477 137.694 591.114C137.694 590.75 138.058 588.688 138.058 588.445C138.058 588.251 137.331 588.122 136.968 588.082C136.927 587.718 136.871 586.893 136.968 586.505C137.089 586.02 137.694 585.292 137.694 584.807V582.745L138.058 581.047L138.663 578.622L140.358 571.83V570.375C140.358 570.084 140.681 569.041 140.843 568.556C141.287 567.747 142.175 566.058 142.175 565.766C142.175 565.403 142.296 563.947 142.175 563.583C142.078 563.292 141.65 562.088 141.448 561.522L140.843 559.703C140.964 557.398 141.133 552.717 140.843 552.426C140.48 552.062 140.722 551.577 140.358 550.849C139.995 550.122 141.448 550 143.386 550C144.936 550 144.677 549.192 144.354 548.788C144.354 547.656 144.476 544.882 144.96 542.845C144.96 542.069 145.687 541.47 146.05 541.268C146.494 540.985 147.576 540.201 148.351 539.328C149.319 538.236 150.046 537.509 150.409 536.902C150.772 536.296 150.772 535.326 150.772 534.841C150.772 534.355 149.561 532.779 149.319 532.415C149.077 532.051 149.198 529.989 150.409 528.777C151.62 527.564 152.468 528.777 152.71 529.504C152.904 530.087 153.356 530.313 153.558 530.353L155.011 531.202C155.576 531.404 156.851 531.857 157.433 532.051C158.014 532.245 157.675 532.375 157.433 532.415V533.992V535.811L156.706 537.873L159.975 541.268L161.186 544.422L163.608 545.392C164.617 545.836 166.708 546.823 166.999 547.211C167.362 547.696 166.999 548.302 167.604 550C168.21 551.698 169.3 548.545 169.3 547.696V547.211C169.461 546.766 169.518 545.465 168.452 543.815C167.604 543.33 167.604 543.694 166.999 542.845C167.241 542.36 168.21 542.36 169.3 540.056C169.421 539.207 169.179 539.085 167.604 537.509C167.023 536.733 167.362 536.458 167.604 536.417C168.412 536.417 170.341 536.296 171.6 535.811C173.175 535.204 173.053 535.568 173.659 534.841C174.264 534.113 174.87 534.234 175.354 533.992C175.839 533.749 176.928 534.719 177.413 534.841C177.8 534.938 179.027 535.932 179.592 536.417C180.602 535.851 182.838 534.501 183.71 533.628C184.799 532.536 185.284 532.658 185.647 532.415C185.938 532.221 187.06 530.96 187.585 530.353L189.522 528.777H191.338L195.213 526.109C195.496 525.866 196.134 525.235 196.424 524.653C196.788 523.926 197.03 523.198 197.756 521.621C198.483 520.045 198.725 520.651 198.725 520.287V518.226C198.725 516.892 199.331 517.134 199.452 517.134C199.573 517.134 201.51 515.8 201.874 515.8H202.842C204.134 516.002 206.766 516.552 206.959 517.134C207.153 517.716 207.928 517.862 208.291 517.862C209.058 517.74 210.738 517.425 211.319 517.134C212.045 516.77 213.862 516.406 214.346 516.406C214.83 516.406 217.01 515.921 217.495 515.8C217.979 515.679 219.432 514.951 219.674 514.83C219.916 514.708 221.975 513.132 222.702 512.525C223.283 512.04 224.397 511.515 224.881 511.313C225.446 510.625 226.625 509.154 226.819 508.766C227.012 508.378 228.03 507.796 228.514 507.553C229.362 507.432 231.057 507.092 231.057 506.704C231.057 506.219 231.905 505.855 231.905 504.642C231.905 503.43 231.541 503.672 231.057 503.187C230.573 502.702 230.936 501.853 231.057 501.368C231.178 500.883 231.905 500.398 232.389 498.942C232.776 497.778 232.227 498.215 231.905 498.579L232.389 495.789L233.237 493.97C233.882 493.121 235.295 491.302 235.78 490.817C236.385 490.21 237.233 490.453 237.717 490.089C238.105 489.798 238.282 489.564 238.322 489.483L241.35 487.785C242.076 487.219 243.578 486.038 243.772 485.844C244.014 485.602 246.436 484.025 246.799 483.904C247.09 483.807 248.696 483.136 249.463 482.812C251.078 481.721 254.404 479.465 254.791 479.174C255.179 478.883 256.163 478.568 256.608 478.446C257.132 478.285 258.182 477.864 258.182 477.476V476.142V474.08C258.182 473.498 258.666 473.595 258.908 473.717C259.272 473.676 260.192 473.62 260.967 473.717C261.742 473.814 262.016 473.272 262.057 472.989C262.42 472.706 263.316 472.019 263.994 471.534C264.842 470.927 265.326 470.685 265.689 470.442C265.98 470.248 267.587 469.634 268.354 469.351C268.919 469.431 270.194 469.084 270.775 467.046C271.502 464.499 271.865 466.076 271.865 465.47C271.865 464.863 272.228 464.499 272.228 463.044C272.228 461.589 272.228 462.438 273.803 461.104C274.771 460.376 275.377 460.255 275.377 459.648C275.377 459.042 274.287 458.799 272.834 459.042C271.381 459.284 272.228 458.678 271.865 458.314C271.502 457.95 271.26 457.708 271.26 457.344C271.26 456.98 270.412 456.616 270.412 455.282C270.412 454.555 270.049 453.463 270.049 453.221V451.644C270.049 450.674 269.928 449.946 270.049 449.704C270.17 449.461 271.018 448.127 271.26 447.884C271.453 447.69 271.986 447.399 272.228 447.278L274.287 444.003C274.489 443.801 274.989 443.373 275.377 443.276C275.861 443.155 276.83 442.548 277.557 442.063C278.283 441.578 279.373 441.093 280.826 441.335C282.279 441.578 282.4 441.093 282.4 440.608C282.4 440.123 282.4 439.88 281.674 439.759C281.092 439.662 281.432 439.395 281.674 439.274C281.754 438.829 282.013 437.843 282.4 437.454C282.885 436.969 283.611 436.969 283.853 436.969C284.096 436.969 286.033 436.606 287.244 436.12C288.213 435.732 289.02 435.959 289.303 436.12C289.868 436.969 291.095 438.789 291.482 439.274C291.967 439.88 291.967 439.395 292.814 439.274C293.662 439.152 294.631 438.667 294.994 437.94C295.357 437.212 296.084 437.576 296.81 437.454C297.392 437.357 298.183 437.737 298.506 437.94L300.927 438.667L301.896 436.969L310.857 426.054C310.938 425.569 311.051 424.478 310.857 423.993C310.615 423.386 310.373 423.629 310.373 423.144C310.373 422.659 310.494 421.446 310.373 420.839C310.252 420.233 310.009 420.112 309.767 419.748C309.525 419.384 307.224 418.899 306.982 417.929C306.74 416.959 303.592 413.927 303.228 413.684C302.865 413.441 302.744 413.078 302.381 412.714C302.017 412.35 301.533 411.501 300.927 411.137C300.322 410.773 298.869 408.712 298.506 408.469C298.142 408.227 296.568 407.499 296.084 407.256C295.599 407.014 294.388 406.65 293.904 406.65H292.693L290.513 406.165C289.545 405.397 287.438 403.715 286.76 403.133C285.912 402.405 285.912 402.405 285.306 401.192C285.185 400.707 285.064 400.465 282.764 400.465C282.085 400.853 281.997 400.869 282.037 400.829C281.835 400.95 281.335 401.289 280.947 401.678C280.56 402.066 279.978 401.839 279.736 401.678C278.848 401.597 276.951 401.386 276.467 401.192C275.861 400.95 275.861 401.071 275.256 400.829C274.65 400.586 274.287 400.586 273.682 400.465C273.076 400.343 273.682 399.252 273.197 398.524C272.713 397.797 272.834 397.312 272.834 396.705C272.834 396.099 273.439 395.492 273.682 395.129C273.875 394.837 274.489 394.037 274.771 393.673L276.467 390.52V389.186C276.467 388.895 276.87 388.499 277.072 388.337L279.131 386.76C279.777 387.003 281.141 387.488 281.432 387.488C281.795 387.488 282.037 387.124 282.037 386.275C282.037 385.426 282.158 384.941 282.037 384.335C281.94 383.85 281.593 383.405 281.432 383.243V381.182C282.158 380.575 283.684 379.338 283.974 379.241C284.265 379.144 284.096 378.473 283.974 378.15L282.764 376.694C282.562 376.694 282.013 376.573 281.432 376.088C280.705 375.482 281.068 375.603 280.342 375.36C279.615 375.118 279.978 374.875 279.736 374.511C279.494 374.147 279.131 373.662 279.131 372.935C279.131 372.207 278.404 372.207 278.041 371.843C277.678 371.479 277.678 371.358 277.678 370.63C277.678 370.048 276.87 370.145 276.467 370.267L274.287 368.569C274.489 368.528 274.989 368.375 275.377 368.084C275.861 367.72 276.951 368.205 277.678 368.084C278.259 367.987 278.889 367.558 279.131 367.356C279.454 367.032 280.148 366.289 280.342 365.901C280.584 365.415 280.826 365.294 281.068 364.93C281.31 364.566 283.248 364.081 284.338 363.354C285.21 362.772 285.508 362.788 285.549 362.869L286.881 362.02C287.688 361.656 289.375 360.928 289.666 360.928C289.956 360.928 290.917 360.524 291.361 360.322L292.451 359.473L296.205 355.349C296.568 355.107 297.295 354.234 297.295 352.681C297.416 352.075 297.779 351.347 298.021 351.347C298.263 351.347 299.111 351.226 299.353 351.347C299.547 351.444 300.564 352.277 301.049 352.681C301.533 352.883 302.623 353.288 303.107 353.288C303.713 353.288 303.713 352.681 303.955 352.317C304.197 351.954 306.013 350.256 306.377 349.771C306.74 349.285 307.224 349.164 308.193 348.073C308.968 347.199 309.242 346.658 309.283 346.496C309.444 346.092 309.767 345.186 309.767 344.798C309.767 344.41 310.655 343.019 311.099 342.373C311.301 341.766 311.753 340.481 311.947 340.19C312.141 339.899 312.996 338.37 313.4 337.643L314.853 335.581L315.459 334.49L316.67 333.519L318.244 334.49H320.181C320.544 334.692 321.392 335.096 321.877 335.096C322.482 335.096 322.361 334.853 323.209 333.519C323.499 332.646 323.572 332.751 323.572 332.913C324.137 332.913 325.437 332.767 326.115 332.185C326.793 331.603 327.043 331.943 327.084 332.185L328.779 331.215L329.99 330.366L330.595 329.153V327.941C330.595 327.334 330.716 327.334 330.595 326.728C330.498 326.243 331.201 325.475 331.564 325.151L333.986 326.243C334.511 326.364 335.657 326.631 336.044 326.728C336.432 326.825 337.255 327.577 337.619 327.941C338.305 327.334 339.75 326.049 340.04 325.758C340.404 325.394 340.525 324.666 341.372 323.453C342.22 322.241 341.857 322.241 341.857 321.634V320.785V319.694C341.816 319.37 341.76 318.578 341.857 317.996C341.978 317.268 342.704 317.389 343.552 317.996C344.23 318.481 344.803 318.683 345.005 318.723L345.974 319.694L347.185 321.634L349.001 322.241L350.212 323.938L351.786 325.758L353.118 325.151C353.441 324.99 354.257 324.666 354.935 324.666H356.025H356.872L357.599 327.334L359.052 329.517H359.779C360.505 329.921 362.079 330.657 362.564 330.366C363.169 330.002 362.443 329.881 361.958 329.517C361.474 329.153 361.958 328.547 361.958 327.941C361.958 327.334 361.716 327.334 361.958 327.334C362.2 327.334 362.806 327.334 363.411 327.941C363.896 328.426 364.42 327.738 364.622 327.334L366.196 325.151L366.802 323.938C367.367 324.343 368.594 325.151 368.982 325.151H370.193C370.556 325.151 370.677 323.938 370.798 323.938C370.919 323.938 371.04 322.847 371.161 322.847C371.282 322.847 372.009 321.755 372.372 321.634C372.736 321.513 373.462 322.241 373.704 322.241C373.898 322.241 375.157 322.645 375.763 322.847C376.045 322.847 376.707 322.726 377.095 322.241C377.482 321.755 378.386 322.038 378.79 322.241C379.436 322.645 380.873 323.332 381.454 322.847C382.035 322.362 382.584 323.049 382.786 323.453L383.876 323.938L385.814 325.758C386.58 326.081 388.284 326.825 388.962 327.213C389.64 327.601 390.132 327.86 390.294 327.941L392.231 328.911C392.514 328.951 393.152 329.081 393.442 329.275C393.806 329.517 394.895 329.881 395.38 330.609C395.864 331.336 396.712 330.609 397.438 330.609C398.165 330.609 399.618 331.094 400.102 331.094C400.587 331.094 400.95 331.458 401.313 331.458C401.677 331.458 403.251 332.064 403.735 332.064C404.22 332.064 404.22 332.064 404.825 331.458C405.431 330.851 406.278 331.094 407.005 331.094H408.942C409.427 331.094 409.79 330.77 409.911 330.609H411.364L411.727 331.094L412.696 331.458C412.938 331.579 413.423 331.87 413.423 332.064C413.423 332.307 414.876 332.428 415.602 332.792C416.184 333.083 416.652 332.67 416.813 332.428L418.145 331.458L419.114 331.094C419.316 330.973 419.889 330.56 420.567 329.881C421.415 329.032 421.294 328.426 421.294 327.941C421.294 327.455 421.415 327.213 421.294 326.728C421.173 326.243 420.809 326.121 420.567 325.758C420.373 325.467 419.518 325.232 419.114 325.151C418.831 324.868 418.242 324.229 418.145 323.938C418.048 323.647 417.217 323.089 416.813 322.847L416.45 321.149C416.167 320.138 415.602 318.02 415.602 317.632C415.602 317.147 415.239 316.54 414.876 314.843C414.755 314.236 414.391 313.872 414.27 313.509C414.149 313.145 413.786 313.023 413.423 313.023C413.059 313.023 412.212 313.023 411.727 312.66C411.34 312.368 411.566 311.972 411.727 311.811C412.01 310.719 412.405 308.269 411.727 307.202C411.049 306.135 410.96 307.162 411.001 307.808H410.516C410.153 307.606 409.354 307.129 409.063 306.838C408.773 306.547 408.296 306.313 408.095 306.232L405.868 307.202C405.318 307.525 404.123 308.172 403.735 308.172H402.767C402.403 308.172 401.556 307.808 400.587 307.202C400.199 307.105 399.699 306.919 399.497 306.838H397.681C396.712 306.838 396.47 307.323 396.106 307.808C395.743 308.294 395.259 307.808 394.774 308.172C394.29 308.536 393.927 308.536 393.079 308.536H391.626C391.021 308.536 390.899 308.172 390.536 307.808C390.246 307.517 389.85 308.415 389.688 308.9L388.841 309.87L387.751 309.385C386.903 309.668 385.039 310.064 384.36 309.385C383.513 308.536 383.028 309.143 382.181 308.9C381.503 308.706 381.333 308.577 381.333 308.536C381.172 308.455 380.849 308.197 380.849 307.808V306.838C381.091 306.596 381.696 305.844 382.181 304.777C382.786 303.442 382.181 304.049 382.181 303.806C382.181 303.564 382.665 303.2 383.028 302.715C383.319 302.327 383.634 302.149 383.755 302.108C383.957 301.906 384.966 300.968 387.388 298.834C389.931 296.651 388.114 298.106 388.478 297.621C388.841 297.136 388.841 296.772 388.841 296.408V294.468C388.841 294.177 389.406 293.7 389.688 293.498C390.011 293.053 390.706 292.091 390.899 291.8C391.142 291.436 391.505 291.072 391.626 290.83C391.747 290.587 392.231 290.102 393.079 288.647C393.321 288.161 393.685 288.161 393.927 287.798C394.12 287.507 394.895 286.544 395.259 286.1L397.681 284.523L398.165 283.31L398.649 282.825C398.932 282.542 399.497 281.734 399.497 280.763C399.594 280.472 400.264 279.106 400.587 278.459C400.748 278.298 401.168 277.853 401.556 277.368C401.943 276.883 402.121 277.166 402.161 277.368C402.928 277.408 404.534 277.465 404.825 277.368C405.116 277.271 404.946 276.761 404.825 276.519C404.987 276.155 405.455 275.209 406.036 274.336C406.617 273.463 407.085 273.325 407.247 273.366C407.207 273.123 407.15 272.565 407.247 272.274C407.344 271.983 407.852 271.587 408.095 271.425L409.79 272.638C410.436 272.476 411.655 272.007 411.364 271.425C411.001 270.697 411.727 270.819 411.364 270.455C411.001 270.091 411.606 269.242 411.727 269C411.824 268.806 412.817 268.191 413.302 267.908C413.544 267.787 414.295 267.326 415.36 266.453C416.692 265.361 416.208 265.846 416.45 265.482C416.692 265.119 417.055 264.512 417.298 264.27C417.491 264.076 418.024 263.219 418.266 262.814C418.347 262.451 418.63 261.165 419.114 258.933C419.841 256.75 419.477 257.842 419.477 257.357C419.477 256.969 420.123 255.821 420.446 255.295H422.141H423.958V254.082C423.958 253.597 423.594 253.355 423.594 252.87C423.594 252.384 423.716 251.05 423.958 250.323C424.2 249.595 425.653 250.323 426.016 250.323C426.307 250.323 427.833 250.808 428.559 251.05C429.003 250.808 430.061 249.959 430.739 248.504L431.223 247.533C431.344 247.331 431.611 246.854 431.708 246.563C431.805 246.272 432.071 245.957 432.192 245.835L435.34 246.563L436.794 245.835L437.883 246.563C438.247 246.846 439.022 247.558 439.215 248.14C439.409 248.722 439.7 249.11 439.821 249.231L440.79 250.323H441.637H442.243H442.969H443.817L444.907 251.05L445.512 251.414H446.602H447.934L448.661 251.05C449.549 250.201 451.446 248.504 451.93 248.504H453.868C454.069 248.342 454.473 247.582 454.473 245.835C454.473 245.108 454.715 245.35 454.836 244.987C454.957 244.623 455.684 244.501 456.895 243.652C457.379 243.167 457.5 243.289 457.5 242.804C457.5 242.318 457.864 242.318 457.864 241.712C457.864 241.106 458.469 240.742 458.469 240.257C458.469 239.772 458.832 239.165 458.832 238.68C458.832 238.292 458.59 237.629 458.469 237.346C458.267 236.416 457.791 234.46 457.5 234.072C457.21 233.683 456.976 233.425 456.895 233.344C456.935 233.101 457.113 232.398 457.5 231.525C457.597 231.331 457.783 230.878 457.864 230.676V229.22C458.348 228.937 459.414 228.323 459.801 228.129C460.286 227.886 461.254 227.037 461.739 226.31C462.126 225.728 461.9 225.42 461.739 225.34C461.819 225.137 462.102 224.563 462.586 223.884C463.192 223.035 463.434 223.278 464.161 222.671C464.887 222.065 465.493 222.308 466.34 221.701C467.188 221.095 467.067 221.095 467.551 220.61C467.939 220.222 468.116 219.639 468.157 219.397C469.206 219.195 471.426 218.669 471.91 218.184C472.516 217.578 473.121 217.456 473.727 217.214C474.211 217.02 474.817 216.81 475.059 216.729C475.341 216.527 475.979 216.074 476.27 215.88C476.633 215.637 476.996 215.637 477.117 215.031C477.239 214.425 477.36 213.939 477.723 213.576L478.449 212.848C478.449 212.605 478.304 211.805 477.723 210.544C477.481 210.18 477.723 209.331 479.66 208.118C480.75 207.754 481.235 207.633 481.961 207.39C482.688 207.148 481.961 206.42 481.961 206.056V204.965L482.809 203.995L483.414 203.024L482.809 202.054V201.569C483.011 201.165 483.487 200.235 483.778 199.75C484.141 199.144 484.141 199.144 484.625 198.901C485.11 198.658 486.078 198.537 486.078 198.295C486.078 198.052 487.41 197.446 487.41 197.082C487.41 196.791 487.814 196.152 488.016 195.869L488.985 194.899L490.317 194.171L493.828 193.807V193.08C493.949 192.837 494.192 192.182 494.192 191.503V190.775C494.07 190.492 493.828 189.805 493.828 189.32V185.318C493.828 184.711 493.828 184.711 493.344 183.377C492.86 182.043 493.102 182.771 492.617 181.437C492.133 180.103 492.012 180.588 491.164 179.739C490.317 178.89 490.559 179.375 490.317 179.133C490.074 178.89 489.469 178.89 488.985 176.465C488.597 174.524 488.823 174.282 488.985 174.403C488.863 174.201 488.597 173.675 488.5 173.19C488.379 172.584 488.016 172.22 487.41 171.25C486.805 170.279 486.684 170.158 486.684 169.673C486.684 169.285 486.28 168.622 486.078 168.339C485.836 167.45 485.352 165.477 485.352 164.701C485.352 163.73 484.988 163.852 484.625 162.518C484.625 162.032 484.988 161.547 485.352 161.062C485.642 160.674 485.473 160.658 485.352 160.698C485.352 160.496 485.497 159.971 486.078 159.486C486.805 158.879 486.684 159.001 486.684 158.758C486.684 158.515 488.016 157.909 488.016 157.06C488.016 156.381 487.128 156.777 486.684 157.06C486.401 156.939 485.739 156.623 485.352 156.332C484.867 155.969 483.899 156.09 483.172 155.726C482.446 155.362 481.477 155.847 481.114 155.726C480.75 155.605 480.024 154.635 480.024 154.271V153.179C479.136 152.735 477.117 151.651 476.149 150.875C475.761 150.584 475.341 150.43 475.18 150.39C475.019 150.188 474.696 149.711 474.696 149.42V148.934C474.857 148.732 475.253 148.11 475.543 147.237C475.834 146.363 476.391 145.822 476.633 145.66C476.633 145.175 476.536 143.865 476.149 142.507C475.664 142.143 475.543 142.264 475.18 141.9C474.889 141.609 474.332 141.294 474.09 141.173C473.727 140.89 472.928 140.227 472.637 139.839C472.274 139.354 471.91 138.99 471.91 138.262C471.91 137.534 471.426 137.292 471.184 136.564C470.942 135.836 470.821 135.836 470.094 134.017C469.368 132.198 470.094 133.29 469.246 132.198C468.399 131.107 468.641 131.713 468.399 131.107C468.157 130.5 467.793 128.924 467.309 128.075C466.825 127.226 467.067 127.104 467.309 126.741C467.551 126.377 467.551 126.256 467.793 125.892C468.036 125.528 468.399 124.921 469.246 124.194C470.094 123.466 469.731 123.709 470.094 123.466C470.457 123.224 471.426 122.253 471.91 121.89C472.298 121.598 473.283 120.717 473.727 120.313L474.696 119.585C475.341 118.534 476.633 116.335 476.633 115.947V114.613C476.633 114.37 477.117 113.521 477.117 113.036V111.217C477.117 110.368 477.36 109.883 477.481 109.398C477.602 108.913 477.723 108.913 478.207 108.306C478.595 107.821 478.692 106.972 478.692 106.608L476.633 107.094L475.422 107.579C475.059 107.336 474.187 106.633 473.606 105.76C473.315 105.371 472.758 105.598 472.516 105.76H471.305C470.901 105.719 469.949 105.59 469.368 105.396C468.786 105.202 468.802 105.072 468.883 105.032C468.762 104.87 468.52 104.377 468.52 103.698C468.52 102.849 468.52 102.728 467.914 102.121H467.309L466.219 103.091C465.937 103.132 465.371 103.116 465.371 102.728V102.121L464.887 101.03H463.676H462.829C462.586 100.706 462.102 99.9625 462.102 99.5744V98.3616C462.183 98.0786 462.296 97.4156 462.102 97.0275C461.86 96.5424 461.739 96.1786 461.375 96.1786C461.085 96.1786 460.689 95.6126 460.528 95.3297L459.075 96.1786C458.55 96.1786 457.5 95.7178 457.5 93.8743C457.888 93.2922 458.066 92.9041 458.106 92.7828C458.429 92.4594 459.075 91.6671 459.075 91.0849C458.881 91.0849 457.622 91.57 457.016 91.8126C456.532 91.9743 455.442 92.2977 454.957 92.2977H454.11C453.706 92.1764 452.802 91.9096 452.415 91.8126C452.027 91.7156 451.042 91.2871 450.598 91.0849L449.387 90.3573H448.297L447.45 89.6296C447.248 89.4679 446.844 88.2955 446.844 84.8998V83.0806C446.844 82.4985 446.118 83.3232 445.754 83.8083H444.786H443.817C443.534 83.8083 442.872 83.6627 442.485 83.0806C442.001 82.3529 442.485 81.504 442.485 81.0189V78.2295C442.485 77.5018 442.485 76.7741 442.969 76.289C443.454 75.8039 443.333 75.1975 443.333 74.106C443.333 73.2328 443.09 73.1762 442.969 73.2571H440.79H438.489C438.085 73.1358 437.181 72.8205 436.794 72.5294C436.309 72.1656 436.309 72.0443 436.067 72.0443C435.873 72.0443 435.26 71.4783 434.977 71.1954C434.775 70.9932 434.275 70.589 433.887 70.589C433.5 70.589 432.354 71.5592 431.829 72.0443L430.376 73.2571C430.255 73.6613 430.012 74.5426 430.012 74.8337C430.012 75.1248 429.528 75.1975 429.286 75.1975C428.923 75.3997 428.196 75.6826 428.196 75.1975C428.196 74.5911 427.348 75.1975 426.864 75.1975C426.476 75.1975 426.218 75.6018 426.137 75.8039L424.805 76.7741H423.837L422.747 75.8039V74.8337V74.4699L422.02 74.106H420.325C419.356 74.1869 417.322 74.3001 416.934 74.106C416.45 73.8635 415.723 73.7422 415.36 73.6209C415.07 73.5239 414.351 73.3379 414.028 73.2571L413.423 72.5294L411.606 70.589C411.929 70.0634 412.672 68.9396 413.059 68.6485L414.028 67.9209L415.723 66.7081C416.531 65.7379 418.194 63.6761 418.387 63.191C418.581 62.7059 418.791 62.9889 418.872 63.191C419.074 62.908 419.526 62.2208 419.719 61.7357C419.913 61.2506 420.204 61.5336 420.325 61.7357H421.536L422.747 61.1293C422.949 60.6038 423.376 59.4314 423.473 58.9463C423.57 58.4612 423.756 58.1782 423.837 58.0974L424.805 57.2484C424.926 57.0463 425.241 56.642 425.532 56.642H427.348C428.026 56.642 428.68 56.3186 428.923 56.1569C429.124 56.2378 429.625 56.351 430.012 56.1569C430.4 55.9629 430.9 55.7527 431.102 55.6718L431.829 55.308L432.919 53.8526V53.2462V52.1547V51.0632L430.981 49.3654L430.376 49.1228C429.891 48.9611 428.923 48.5649 428.923 48.2739C428.923 47.91 428.196 47.91 427.348 47.5462C426.501 47.1824 427.348 46.9398 427.348 46.576V45.8483C427.631 45.6462 428.196 45.1449 428.196 44.7568C428.196 44.2717 428.923 44.5142 428.923 44.0291V42.6951C429.044 42.4929 429.213 42.0159 428.923 41.7248C428.632 41.4338 428.801 40.9568 428.923 40.7546V39.7844C428.923 39.3963 429.165 39.6227 429.286 39.7844L430.012 38.6929V36.8737C430.012 36.2673 429.528 36.3886 429.286 35.0546C429.092 34.6665 429.689 34.246 430.012 34.0843L431.465 32.9928L432.919 34.0843L434.614 35.1758L435.825 35.5397L436.672 35.9035L437.52 37.4801L438.489 38.2078V39.7844V40.7546L439.458 41.2397H440.184H440.79L441.758 40.7546H442.485H443.333L443.817 41.2397L444.786 40.7546C444.907 40.5929 445.149 40.1725 445.149 39.7844C445.149 39.3963 445.876 38.895 446.239 38.6929L446.965 37.4801L447.329 35.9035C447.53 35.0546 447.934 33.1384 447.934 32.2652C447.934 31.392 447.288 31.012 446.965 30.9311C447.046 30.5673 447.232 29.7669 447.329 29.4758C447.426 29.1847 447.773 28.0609 447.934 27.5353V26.2013C448.176 25.8375 448.733 25.0128 449.024 24.6247C449.387 24.1396 449.751 24.1396 449.751 23.6544C449.751 23.2664 448.54 23.4927 447.934 23.6544L446.602 23.2906C446.239 23.4523 445.44 23.8485 445.149 24.1396C444.858 24.4306 442.767 24.9077 441.758 25.1098L438.489 26.8077H434.614L432.919 26.2013L431.829 25.1098H431.102L430.376 24.1396L429.528 23.2906L428.196 24.1396L426.501 25.1098H423.837C423.352 25.1098 423.231 24.6247 422.262 23.2906C421.294 21.9566 421.899 22.8055 421.536 22.5629C421.173 22.3204 420.567 21.8353 420.083 21.3502C419.598 20.8651 418.993 21.1076 418.751 20.7438C418.509 20.3799 417.903 20.5012 417.661 20.0161C417.467 19.628 417.177 19.8544 417.055 20.0161C416.854 19.531 416.353 18.4395 415.966 17.9544C415.578 17.4693 415.481 17.0246 415.481 16.8629L414.876 15.0437C414.835 14.8012 414.609 14.1463 414.028 13.4671C413.447 12.788 413.786 12.9416 414.028 13.1033C413.907 12.982 413.665 12.6182 413.665 12.1331V11.2841C413.786 11.082 414.028 10.6292 414.028 10.4352C414.028 10.1926 414.997 9.70749 415.481 8.97983C415.966 8.25216 415.966 7.16066 415.966 6.31172C415.966 5.63256 415.643 4.97766 415.481 4.7351H414.028C413.867 4.4117 413.495 3.76488 413.302 3.76488C413.108 3.76488 412.252 3.11806 411.848 2.79466L410.516 2.06699L409.184 1.58188L407.61 2.06699H405.431C404.946 2.51168 403.929 3.47381 403.735 3.76488C403.541 4.05595 402.686 4.53297 402.282 4.7351L400.345 8.00961L399.497 12.1331C399.941 12.982 400.877 14.7527 401.071 15.0437C401.265 15.3348 400.425 16.0544 399.981 16.3778L398.892 19.2884L396.591 23.2906L394.169 24.1396L393.442 23.2906C393.16 23.4119 392.546 23.7515 392.353 24.1396C392.11 24.6247 391.384 24.9885 390.415 24.1396C390.028 23.7515 389.527 24.3013 389.325 24.6247C388.962 24.9885 388.066 25.4979 387.388 24.6247C387.024 24.2608 386.661 24.9885 386.419 24.9885C386.177 24.9885 385.571 24.5034 385.208 24.1396L385.208 24.1394C384.845 23.7756 384.36 23.2906 384.118 23.2906C383.876 23.2906 382.181 22.9268 379.759 22.9268C379.153 22.9268 378.911 23.2906 378.548 24.1396L378.185 24.9885H376.005H375.278C375.117 25.2715 374.697 25.8132 374.31 25.7162C373.825 25.5949 373.704 25.3523 373.704 24.9885C373.704 24.6247 373.462 24.1396 372.614 23.2906C372.13 23.2906 371.04 22.9268 370.677 23.2906C370.314 23.6544 370.071 23.2906 369.708 22.9268C369.345 22.5629 369.103 22.9268 368.982 22.9268C368.861 22.9268 368.134 21.3502 367.892 20.7438C367.698 20.2587 367.084 20.9459 366.802 21.3502H364.864H363.532C362.967 21.5927 361.764 22.0778 361.474 22.0778C361.111 22.0778 360.626 22.9268 360.263 22.9268C359.9 22.9268 358.568 24.1396 358.325 24.1396C358.132 24.1396 357.034 23.8162 356.509 23.6544L355.056 22.9268L353.724 22.4417L352.15 22.9268L351.302 22.4417C351.262 22.1991 351.06 21.6412 350.575 21.3502C350.091 21.0591 349.647 21.2289 349.486 21.3502L347.911 22.4417C347.548 22.0778 346.749 21.2289 346.458 20.7438C346.168 20.2587 345.449 20.0565 345.126 20.0161L343.31 19.1672L341.13 20.7438C340.283 21.1885 338.539 22.0051 338.345 21.714C338.151 21.4229 337.134 20.9459 336.65 20.7438L334.833 22.4417L332.048 23.6544C331.322 23.1289 329.82 22.0778 329.626 22.0778C329.433 22.0778 328.819 21.5927 328.537 21.3502C328.416 21.714 328.052 22.6842 327.568 23.6544C327.084 24.6247 327.366 23.5736 327.568 22.9268L326.236 22.0778L325.509 21.3502C325.307 21.148 324.831 20.7438 324.541 20.7438H322.724L321.392 22.0778L319.939 23.6544C319.697 23.4119 319.091 22.9268 318.607 22.9268H316.064C315.773 22.9268 315.297 22.6034 315.095 22.4417L313.158 22.9268L312.31 21.714L311.826 20.7438L310.736 20.0161L308.92 19.1672C308.476 19.1672 307.491 19.0216 307.103 18.4395C306.716 17.8574 306.619 17.065 306.619 16.7416H305.892L303.713 17.348H302.259L301.533 16.7416L300.927 14.6799H298.021V15.8927L296.931 17.348L297.416 19.1672L296.447 21.3502C297.174 23.5736 298.627 28.0932 298.627 28.3843C298.627 28.7481 299.232 30.9311 299.353 31.5375C299.45 32.0226 299.717 34.4886 299.838 35.661L300.927 39.9057V43.3015V46.3334V49.1228V50.942L299.838 53.8526V56.5207L298.627 59.9165L297.779 62.2208L296.931 63.7974L294.994 64.2825H293.42C292.976 64.2825 292.039 64.1855 291.846 63.7974C291.652 63.4093 290.796 63.9591 290.392 64.2825L288.939 66.4655L287.971 67.6783H286.639L285.306 68.1634L284.459 70.2251L283.006 72.2869L281.432 73.9848L279.857 76.5316L277.314 78.3508L275.982 80.2912L274.166 82.4742L271.744 83.4444H268.959L265.689 84.5359L261.693 85.5062L260.24 86.2338L257.334 87.3253H254.065H252.006L250.674 88.2955H247.768H246.315C245.911 88.1338 245.055 87.8104 244.862 87.8104H243.045L241.955 88.9019V90.4785H244.014L243.045 91.6913C242.884 92.136 242.537 93.0981 242.44 93.3892C242.343 93.6803 242.803 94.8041 243.045 95.3297L244.377 97.5127L245.83 98.8467L245.467 101.879L246.315 104.062L244.377 105.396L241.955 106.487L239.049 108.428L234.932 112.066L232.994 112.915L231.662 113.885L230.088 114.37L229.241 114.734H227.666H225.971H224.639L222.823 115.462L221.248 115.826L219.432 116.553L218.342 118.13V120.313L217.616 121.526L215.194 122.011L217.616 125.164L216.041 126.983L215.678 128.924L217.01 130.864L214.346 132.562L214.83 133.775L213.256 135.473L214.346 137.049L212.651 139.717L210.592 142.264L209.139 143.841L206.838 142.871L205.87 141.294L204.417 140.566L202.479 139.717L201.026 140.566L198.846 142.264L197.514 146.145L196.667 148.692L195.577 149.905L193.881 150.875L192.065 154.392L193.397 156.211V158.879L192.671 160.941V162.639L193.881 166.52L191.338 169.673L192.065 171.977L191.338 173.433V175.616L189.885 177.313L189.038 179.133L186.858 180.224L185.526 183.499L183.71 185.682L184.799 187.865L184.194 188.714V190.169L183.225 191.988L183.71 193.08V194.656L182.741 195.384L184.194 197.446L182.741 199.144V200.478L181.288 201.933L182.257 204.601L183.71 206.299L186.253 207.39L185.526 208.724L186.253 209.816L186.858 211.756L186.253 213.333L188.796 215.516V217.214L187.827 217.942L188.796 220.367L187.827 221.459L188.796 222.914L187.827 224.854V227.401L187.464 229.706L185.526 232.131V234.799V236.497L183.71 238.195L181.409 241.348L181.046 243.289L180.198 244.259L179.592 246.078L180.198 247.412L178.624 249.231V251.899L179.592 253.233H181.409L182.499 254.204H184.194L185.526 254.931V256.265V257.842L185.163 259.176L184.799 260.51L182.499 264.27L179.956 265.24L177.292 263.663L175.233 266.331L174.143 268.029L172.085 269.606L171.479 272.395L170.753 275.185L169.057 276.397L168.21 278.095L167.483 281.612L166.636 285.493L165.304 288.889L163.972 292.042L163.003 293.862L160.823 295.559L156.222 297.379H153.921L151.62 295.559L150.53 295.196L147.14 294.71L146.534 294.225L144.718 295.559H143.749H141.933L142.296 294.225V292.649H140.237L137.937 294.71L136.483 294.225L134.667 294.71L132.851 294.225L131.155 294.71L128.976 295.559V297.379L128.491 298.106L129.46 300.047L128.612 301.138H129.944L131.882 302.108L132.851 305.989L131.882 308.9L133.698 312.296L132.851 314.357V317.753V319.209V323.696L131.882 325.151V327.455V329.275L131.034 331.336V333.398L129.944 337.158L128.612 340.432L126.917 343.222L124.737 347.224L122.558 350.134L120.984 353.045L119.53 357.169V360.201L118.562 362.383V364.203L117.109 365.294L118.562 366.992L117.109 368.932L116.261 371.601L111.296 373.662L109.601 376.209L110.449 378.028L109.601 380.696V382.031V384.577V386.154L108.511 389.428L106.816 390.399H104.273L103.304 391.854L104.273 394.158L103.304 395.371V398.039V400.707V403.375L102.335 405.437L99.4291 406.407L98.7025 408.227L99.4291 410.046L98.7025 412.35L97.6127 415.624L95.7963 420.233L91.4369 423.022L92.769 424.235L91.4369 425.933V427.631L89.9838 434.18L88.7729 439.637L85.6245 443.033L83.5659 444.003L80.5386 449.582L77.8745 451.765L73.3941 456.859L72.0621 457.587L70.2457 459.527L67.2184 460.982L64.1911 463.893L60.9216 468.744V471.291L58.863 474.687V477.597V479.538L57.531 481.115L54.3825 486.693V489.604L52.324 492.393L53.0505 494.819L52.324 497.002L51.2341 499.791V502.338L50.3865 504.279V506.825L49.5388 509.736L48.2068 511.919L46.1482 513.496V516.285L44.6951 517.862L43.1209 519.56L42.3944 522.228L41.3045 524.653V526.715L39.7303 528.777L38.6405 529.868L36.8241 531.687H34.8866L32.5858 529.868V533.385L35.9764 534.355L37.7928 536.781L38.6405 539.085V544.543L37.7928 547.817L38.6405 550.364L36.8241 553.154V554.851L35.9764 556.913L34.8866 559.703L32.5858 562.128V564.311L31.0116 568.313L29.3163 571.103L26.8945 572.558H24.1093L23.0195 573.407V574.862L20.1133 578.016V580.077L18.9024 582.503L16.7227 585.777L14.6641 586.869L11.879 588.445L7.39854 591.114L4.49232 593.418L3.0392 596.692L2.19155 598.875H5.33997L10.7891 600.452H14.6641L18.9024 601.18V603.363L21.9297 602.271L25.4414 598.875L28.4687 601.18L31.0116 603.363L34.8866 602.271L35.9764 598.875L38.6405 597.541L41.4256 598.875L42.9998 600.452L45.1795 601.18L48.2068 600.452H50.8709L54.0193 598.875H59.3474Z" stroke="var(--stroke-0, black)" stroke-width="3"/>
</svg>
