<svg preserveAspectRatio="none" width="100%" height="100%" overflow="visible" style="display: block;" viewBox="0 0 83.2849 84" fill="#D4B068" xmlns="http://www.w3.org/2000/svg">
<path id="Vector 98" d="M14.3085 72.5583V68.7985C14.9578 68.5963 16.4025 68.0222 16.9869 67.343C17.5713 66.6639 17.8797 66.4132 17.9609 66.3728L18.8131 65.5238V64.7961L20.3958 63.8258L21.1263 62.3703V60.7936V59.7021C21.1263 59.1361 20.4933 58.1739 17.9609 58.8531C17.2791 58.8531 16.5405 59.4191 16.2564 59.7021C15.6071 59.4191 14.3085 58.6833 14.3085 58.0041C14.3085 57.3249 13.578 57.2359 13.2127 57.2764L12.117 55.6997H11.0213H9.56032L7.73408 54.4868L5.29448 55.6997C4.36265 55.2954 2.27986 54.3655 1.40328 53.8804C0.526694 53.3952 1.28153 53.1931 1.76852 53.1527L2.49901 52.3037L4.81221 53.1527L6.51668 51.8185L6.02964 50.3631V48.4225H4.81221V46.6033L6.02964 45.8756C5.82673 45.3096 5.54265 44.1776 6.02964 44.1776C6.63838 44.1776 7.9776 43.086 8.70809 42.3583C9.29248 41.7761 9.51974 42.1157 9.56032 42.3583H11.0213L13.2127 40.9029H14.3085C14.6737 41.388 15.5747 42.3583 16.2564 42.3583C16.9382 42.3583 16.5405 43.5711 16.2564 44.1776C16.8246 44.7436 18.1314 46.0211 18.8131 46.6033C19.6654 47.331 20.5176 48.4225 21.1263 49.3928C21.6133 50.1691 22.2221 50.3631 22.4656 50.3631C23.2366 50.5653 24.7788 50.4601 24.7788 48.4225C23.8048 47.6948 24.0483 47.0884 24.0483 45.8756C24.0483 44.9053 24.5353 44.3393 24.7788 44.1776L25.7528 43.086C26.8079 42.8434 29.2591 42.3583 30.6227 42.3583H32.3271C33.0982 41.9944 34.6403 41.1939 34.6403 40.9029C34.6403 40.539 34.6403 38.5984 33.3011 36.0514C32.2297 35.1782 31.4749 34.3939 31.2314 34.1109L30.1357 32.2916V31.2V28.653V26.8338C30.1357 26.3891 30.2331 25.3783 30.6227 24.8932C31.0123 24.4081 31.1908 23.3165 31.2314 22.8314L32.3271 21.2546V19.9205H34.6403L35.4926 21.2546H36.8318C37.684 21.2546 39.9485 20.7938 42.1887 18.9502C43.0409 17.8587 42.1887 17.2522 41.3364 16.1607C40.6547 15.2874 40.4842 15.7968 40.4842 16.1607L39.3885 15.3117L37.4405 14.7052L36.8318 13.8562C37.0347 13.3711 37.7084 12.4008 38.7798 12.4008H40.4842H41.3364C41.6205 11.9561 42.3835 11.0667 43.1627 11.0667C43.9418 11.0667 43.4873 10.4198 43.1627 10.0964L45.3541 9.2474C45.7599 9.5304 46.7664 10.2905 47.5456 11.0667C48.3248 11.8429 48.8442 12.2795 49.0066 12.4008C49.4935 12.5625 50.5893 12.7889 51.0763 12.4008C51.5632 12.0127 52.0097 12.2391 52.172 12.4008V11.0667L52.9025 9.2474L53.8765 10.0964H54.7287C54.9722 10.4198 55.5809 11.0667 56.0679 11.0667C56.5549 11.0667 57.7318 11.9561 58.2594 12.4008H59.3551H61.5466V11.0667V10.0964L62.277 9.2474H63.3728C63.738 8.72183 64.6876 7.67069 65.5642 7.67069C66.4408 7.67069 65.9295 6.94298 65.5642 6.57912H67.0252L69.8254 5.48756H71.5299L72.3821 4.51727L73.2343 3.78956V2.09157L75.0605 1H77.1303H78.8347C79.484 1.24257 80.7827 1.80048 80.7827 2.09157C80.7827 2.38265 81.5943 3.34485 82.0002 3.78956L80.7827 5.48756V6.57912V7.67069V9.2474C80.6204 9.69211 80.1009 10.6786 79.3217 11.0667C78.5425 11.4548 78.6724 12.8455 78.8347 13.4924C77.9013 14.1797 76.0345 15.6755 76.0345 16.1607C76.0345 16.7671 75.0605 17.2522 74.2083 18.2225C73.3561 19.1928 74.2083 20.4056 74.2083 21.2546C74.2083 21.9338 75.4258 22.5888 76.0345 22.8314L77.1303 23.9229V25.4996L76.0345 26.8338L75.0605 28.653L74.2083 31.2V32.2916V34.1109C74.817 34.1513 76.5946 34.4262 78.8347 35.2024C80.5392 35.6876 78.8347 36.4153 78.8347 37.143C78.8347 37.7252 77.6984 39.0836 77.1303 39.69L74.2083 42.3583V45.8756C73.5996 46.482 72.3821 47.8404 72.3821 48.4225V50.9695V52.3037V54.4868C72.3821 55.069 72.9502 55.5379 73.2343 55.6997H74.2083H76.0345L77.1303 57.2764V58.8531L76.0345 60.7936C76.3998 60.9958 77.4711 61.2788 78.8347 60.7936C80.1983 60.3085 79.4029 61.6426 78.8347 62.3703V65.5238C78.8347 66.0898 78.9321 67.4158 79.3217 68.192C79.7113 68.9683 79.1594 69.7283 78.8347 70.0113L77.1303 71.588V73.4073V75.833V78.0161L76.0345 78.9864V82.625C75.0605 82.908 72.9665 83.3042 72.3821 82.625C71.6516 81.776 69.9471 83.1101 69.0949 82.625C68.2427 82.1398 67.7557 81.8973 67.0252 81.8973H65.5642C64.9149 81.6143 63.3484 81.0483 62.277 81.0483H60.5726L59.3551 80.1993L58.2594 78.9864H56.9201H54.7287H52.9025L51.0763 78.0161H49.0066L47.5456 77.2884H46.5716L45.3541 78.0161L44.3801 77.2884H43.1627L42.1887 75.833V74.135H40.4842L38.7798 75.833C38.4551 76.3181 37.7327 77.2884 37.4405 77.2884C37.0753 77.2884 35.9796 78.0161 35.4926 78.9864C35.103 79.7626 33.8693 79.3099 33.3011 78.9864L32.3271 78.0161L31.2314 75.833L30.1357 74.135L28.9182 75.833L26.605 77.2884H24.7788L23.0743 75.833H17.9609V74.135L14.3085 72.5583Z" stroke="var(--stroke-0, black)" stroke-width="2"/>
</svg>
