<svg preserveAspectRatio="none" width="100%" height="100%" overflow="visible" style="display: block;" viewBox="0 0 68.9999 95" fill="#2F5F3F" xmlns="http://www.w3.org/2000/svg">
<path id="Vector 100" d="M37.2482 94H35.9112V93.5137L36.7621 92.1765V90.1098L36.519 88.5294L35.4251 89.0157H33.8449C33.1156 89.0157 32.6294 89.0157 32.0217 87.8V84.8824V82.2078C32.0217 81.1137 32.1433 81.6 32.3863 81.3569C32.6294 81.1137 32.5079 80.749 32.751 80.0196C32.9941 79.2902 33.4802 80.0196 34.2096 79.1686C34.9389 78.3176 34.5742 78.4392 33.4802 77.3451C32.994 76.9804 33.4802 76.3726 33.4802 75.5216C33.4802 74.6706 33.4802 74.9137 34.2096 74.549C34.9389 74.1843 35.0604 73.8196 35.4251 73.4549L36.7621 72.1176C37.0457 72.0771 37.6129 71.8988 37.6129 71.5098C37.6129 71.0235 38.9499 70.6588 38.9499 70.1725C38.9499 69.6863 39.8008 69.4431 39.4361 68.7137C39.0715 67.9843 38.3422 67.8627 37.6129 67.6196C36.8836 67.3765 36.8836 67.2549 36.519 67.2549C36.1543 67.2549 35.0604 67.498 34.5742 67.2549C34.1853 67.0604 34.1691 66.8497 34.2096 66.7686L33.4802 66.0392V64.3373V62.5137L34.2096 61.7843L35.4251 60.5686C35.7897 60.2039 36.0328 59.8392 36.519 59.2314C37.0052 58.6235 36.519 58.1373 36.8836 57.4078C37.1753 56.8243 36.7621 56.6784 36.519 56.6784C36.1543 56.3948 35.3521 55.7545 35.0604 55.4627C34.6958 55.098 34.5742 55.2196 33.4802 53.7608C32.3862 52.302 33.4802 52.6667 33.4802 51.8157C33.4802 50.9647 33.9665 51.2078 34.2096 50.7216C34.4527 50.2353 35.0604 49.6275 35.4251 48.898C35.7168 48.3145 36.9241 47.6013 37.4914 47.3176L38.9499 46.3451V44.4L39.8008 43.549C40.1654 43.1843 40.4085 42.0902 40.4085 41.7255V40.5098V39.1726C40.4085 38.5647 41.2593 37.9569 41.2593 37.1059C41.2593 36.4251 41.6645 36.8222 41.8671 37.1059C42.0291 36.498 42.256 35.2824 41.8671 35.2824C41.381 35.2824 41.2594 34.9176 39.8008 34.0667C39.3146 33.8722 39.031 33.6614 38.9499 33.5804H37.4914C37.1267 33.5804 36.8836 33.2157 36.519 33.2157H35.0604C34.7768 33.4993 34.0637 34.1153 33.4802 34.3098C32.7509 34.5529 33.1156 35.5255 32.5079 37.1059C32.3134 37.7867 32.1027 37.9569 32.0217 37.9569C31.8191 38.119 31.2681 38.4431 30.6846 38.4431C29.9553 38.4431 30.1985 38.3216 29.8338 38.4431C29.2666 38.7268 27.9377 39.2698 27.1598 39.1726C26.3819 39.0753 26.2684 38.9699 26.3089 38.9294V37.1059C26.3089 36.4251 26.0658 36.2549 25.9443 36.2549L26.3089 35.2824C26.5926 35.0797 27.2084 34.6016 27.4029 34.3098C27.5974 34.018 27.727 34.0261 27.7675 34.0667C28.1322 33.783 28.91 33.2157 29.1046 33.2157C29.2991 33.2157 29.1856 32.5673 29.1046 32.2431L28.8614 31.2706H27.7675L26.6736 30.7843C26.552 30.5817 26.236 30.1278 25.9443 29.9333C25.6526 29.7388 26.0658 29.0418 26.3089 28.7176L26.6736 26.2863H23.8779H22.2979C21.8117 26.2863 21.0823 26.1647 21.0823 26.2863C21.0823 26.3835 20.272 26.8941 19.8669 27.1373C19.6643 27.2993 19.1619 27.7451 18.773 28.2314C18.2868 28.8392 18.773 29.0824 18.773 29.6902C18.773 30.1765 19.0971 30.217 19.2592 30.1765C19.0566 30.5412 18.5542 31.2706 18.1652 31.2706H16.9497H13.911C11.9662 31.2706 13.3032 31.2706 12.574 30.7843C11.9906 30.3953 11.7637 30.6222 11.7232 30.7843C11.3585 31.149 10.5077 31.8784 10.0215 31.8784C9.41382 31.8784 9.41371 32.851 8.92757 33.2157C8.44143 33.5804 7.71209 33.4588 6.01036 31.8784C6.01036 31.2949 5.03802 31.2301 4.55184 31.2706L4.30874 30.7843C3.98462 30.6627 3.14187 30.371 2.36392 30.1765C1.39149 29.9333 2.36392 29.6902 2.36392 29.0824V28.2314C2.36392 28.0369 3.25527 27.7451 3.70095 27.6235L4.30874 26.7725L5.03798 24.5843C5.03798 24.3817 4.94075 23.9035 4.55184 23.6118C4.16293 23.32 4.22773 23.2471 4.30874 23.2471H3.33636C3.04464 23.2471 2.56652 23.0039 2.36392 22.8824C2.20186 22.7608 1.75618 22.4447 1.26999 22.1529C0.66225 21.7882 1.26999 20.9373 1.26999 20.2078C1.26999 19.6243 1.67515 19.5595 1.87773 19.6C1.99928 19.3974 2.26668 18.8949 2.36392 18.5059C2.48547 18.0196 2.72857 17.7765 3.70095 17.0471H5.03798L6.01036 16.6824C6.29398 16.3987 6.88551 15.7584 6.98275 15.4667C7.07999 15.1749 7.83359 15.3451 8.19823 15.4667C8.72494 15.1425 9.70543 14.2996 9.41371 13.5216C9.41371 13.3271 8.60339 13.1163 8.19823 13.0353C7.79307 12.6706 6.98275 11.7953 6.98275 11.2118V10.7255C7.30688 10.3608 8.00375 9.55843 8.19823 9.26667C8.39271 8.9749 9.08958 8.49673 9.41371 8.29412L10.6292 9.26667L12.0878 11.2118C12.3714 11.2118 13.0115 11.1145 13.3032 10.7255C13.595 10.3365 13.83 10.8876 13.911 11.2118C14.0325 11.4549 14.3486 11.9412 14.6403 11.9412H15.8558C16.2204 11.9412 17.1928 12.0141 18.1652 12.3059C18.4083 12.6706 19.1376 12.3059 19.7453 11.9412C20.353 11.5765 19.7453 11.0902 19.7453 10.7255C19.7453 10.4337 20.0694 9.63137 20.2315 9.26667L21.0823 9.63137H22.784C23.7564 9.63137 23.3917 9.63137 23.8779 9.26667C24.2669 8.9749 24.8503 9.38824 25.0934 9.63137C25.7012 9.55033 27.3056 9.16941 28.8614 8.29412C30.4172 7.41882 30.1579 7.92941 29.8338 8.29412L30.6846 7.56471L33.4802 5.86275L34.2095 6.47059C34.5336 6.47059 35.3034 6.56784 35.7896 6.95686C36.3974 7.44314 36.8836 6.47059 37.856 6.95686C38.8283 7.44314 38.5852 6.83529 40.4085 6.47059C40.8947 6.47059 41.1783 6.06536 41.2593 5.86275C41.5834 5.49804 42.256 4.57412 42.3532 3.79608C42.4748 2.82353 43.0825 3.79608 43.5687 3.79608C44.0549 3.79608 44.1765 2.9451 44.5411 2.9451C44.9057 2.9451 45.2704 2.58039 45.635 2.21569C45.9268 1.92392 46.6479 1.28366 46.9721 1H48.6737V2.58039C48.9979 2.70196 49.7191 2.9451 50.0108 2.9451C50.3025 2.9451 51.1047 3.51242 51.4693 3.79608L52.3202 4.16078L51.834 4.76863C51.7124 4.93072 51.3721 5.2549 50.9832 5.2549C50.5942 5.2549 51.1452 5.66013 51.4693 5.86275V6.47059C51.5504 6.83529 51.9069 7.66196 52.6848 8.05098H54.265C54.8484 8.05098 55.0753 7.7268 55.1158 7.56471H56.0882C56.3799 7.56471 56.6149 6.83529 56.6959 6.47059V5.86275C56.4933 5.66013 56.0882 5.18196 56.0882 4.8902C56.0882 4.59843 56.4933 4.03922 56.6959 3.79608H57.5467C57.8304 4.12026 58.3976 4.86588 58.3976 5.2549C58.3976 5.64392 59.0458 6.22745 59.37 6.47059V7.56471V8.90196V10.2392V12.6706C59.2484 13.1569 58.3976 14.3725 58.3976 14.8588C58.3976 15.3451 57.0606 16.1961 56.6959 16.6824C56.3313 17.1686 56.5744 17.4118 56.6959 17.7765C56.8175 18.1412 57.3037 18.8706 57.5467 19.1137L58.3976 19.9647L60.4639 21.302C61.0716 22.0314 62.2871 23.7333 62.2871 24.7059C62.2871 25.3137 62.7733 25.6784 62.7733 26.1647V27.6235C62.7733 28.2314 62.7733 28.4745 63.138 29.3255C63.5026 30.1765 63.138 30.4196 63.138 31.5137C63.138 31.8784 61.9225 32.9725 61.5578 33.4588C61.1932 33.9451 61.5578 34.3098 61.9225 34.9176C62.2142 35.4039 62.044 35.6065 61.9225 35.6471C61.8009 36.2144 61.6308 37.349 61.9225 37.349H62.5302C62.7328 37.5516 63.2352 37.9812 63.6242 38.0784C64.0131 38.1757 64.3534 38.7673 64.475 39.051C64.475 39.3346 64.3777 40.0235 63.9888 40.5098C63.5998 40.9961 64.475 41.4418 64.9612 41.6039C65.0827 41.766 65.3258 42.1631 65.3258 42.4549V43.9137V45.3726C65.3258 45.8588 64.9612 46.7098 64.475 47.1961C63.9888 47.6824 63.9888 48.1686 63.9888 48.5333C63.9888 48.898 64.475 50.1137 64.475 50.7216C64.475 51.2078 63.9078 51.8967 63.6242 52.1804C63.2595 52.5451 62.4816 53.3475 62.2871 53.6392C62.0926 53.931 61.963 54.8144 61.9225 55.2196L62.5302 57.4078C62.4492 57.9752 62.2142 59.1827 61.9225 59.4745C61.5578 59.8392 61.5578 60.4471 61.5578 60.9333C61.5578 61.4196 60.8285 61.4196 60.4639 62.149C60.1722 62.7325 59.9372 62.9595 59.8562 63V64.2157C59.8562 64.8235 60.0993 64.9451 60.4639 65.4314C60.8285 65.9176 61.6794 64.9451 62.5302 64.2157C63.3811 63.4863 62.7733 63.6078 63.138 63.4863C63.4297 63.389 63.5836 63.1216 63.6242 63L63.9888 62.149C64.0293 61.9464 64.1833 61.4196 64.475 60.9333C64.8396 60.3255 64.5965 60.3255 64.9612 59.9608C65.3258 59.5961 65.3258 59.1098 65.9336 58.502C66.5413 58.502 66.7844 58.8667 67.149 59.1098C67.4408 59.3043 67.8378 59.7582 67.9999 59.9608V60.9333L67.5137 62.149L67.149 63.6078L66.2982 64.5804L67.149 65.4314V66.7686C66.9059 66.9712 66.3954 67.4251 66.2982 67.6196C66.201 67.8141 65.6094 68.349 65.3258 68.5922L64.9612 69.0784V69.4431V70.6588V71.3882C64.5965 71.5503 63.8186 71.7773 63.6242 71.3882C63.3811 70.902 63.138 70.6588 62.7733 70.051C62.4816 69.5647 62.3276 69.8484 62.2871 70.051H61.5578L60.4639 70.6588L59.8562 71.3882C59.6131 71.5909 59.1269 72.0933 59.1269 72.4824V73.8196V75.5216V76.3726H58.6407H58.0329L57.1821 77.3451L55.7235 78.4392L54.508 80.0196C54.5486 80.6274 54.6053 81.9647 54.508 82.451C54.3865 83.0588 54.265 82.9373 53.9003 83.0588C53.6086 83.1561 53.5357 83.3425 53.5357 83.4235C53.3736 83.6667 53.0008 84.1529 52.8064 84.1529C52.5633 84.1529 52.1986 84.8824 51.834 84.8824C51.5423 84.8824 50.9832 84.3961 50.7401 84.1529H50.1323C50.0513 83.7477 49.8163 82.9373 49.5246 82.9373C49.2329 82.9373 48.9168 82.6131 48.7953 82.451C48.3496 82.532 47.3367 82.7427 46.8505 82.9373C46.2428 83.1804 45.635 83.9098 45.2704 84.1529C44.9787 84.3475 44.0144 84.7203 43.5687 84.8824C43.0825 85.166 42.0372 85.8549 41.7455 86.3412C41.4538 86.8275 40.9757 87.5163 40.7731 87.8C40.5705 88.2052 40.1654 89.0886 40.1654 89.3804V90.1098L40.7731 91.5686L40.1654 93.0275L39.3145 94H37.2482Z" stroke="var(--stroke-0, black)" stroke-width="2"/>
</svg>
