<svg preserveAspectRatio="none" width="100%" height="100%" overflow="visible" style="display: block;" viewBox="0 0 88 104.996" fill="#A8B890" xmlns="http://www.w3.org/2000/svg">
<path id="Vector 97" d="M1 96.5958V95.6209M1 95.6209V92.2087L2.33805 90.0151V86.2374L3.6761 82.7033V79.9004L5.25743 77.2194V73.3198L10.0014 67.7141V61.8646L12.4342 58.4524V55.7714L18.8812 48.3377L22.4088 45.7786L25.4498 44.1943L29.5856 38.8323L32.2617 37.37L35.181 31.3986L38.1004 29.9363L40.5332 26.4022L41.5064 20.6746H42.1146L44.669 21.6495L45.7638 20.6746L46.9802 18.4811L48.1966 16.5313V14.8252V12.1442L49.6563 10.4381L50.5078 8.24452L51.7242 4.9542L53.3055 1.54202L55.7383 3.36997H58.5361L60.1174 3.97929H61.8204L62.9151 5.44166L64.2532 7.02589L64.983 8.24452H65.7129L64.983 9.82875L66.1994 11.5348L67.7808 12.1442L68.5106 13.1191L67.7808 13.6065C67.5375 13.4847 66.8806 13.3141 66.1994 13.6065C65.5182 13.899 64.9425 14.2971 64.7397 14.4596L64.2532 14.8252L62.9151 15.6782H61.0905C60.9283 15.9219 60.6526 16.5069 60.8472 16.8969C61.0419 17.2868 60.4418 17.7905 60.1174 17.9936V18.4811L59.5092 19.6997L60.1174 20.6746L60.8472 21.6495L62.0636 22.0151H62.9151C62.9151 22.3401 62.9151 23.0875 62.9151 23.4775C62.9151 23.8675 62.3475 24.6149 62.0636 24.9399C62.2258 25.4273 62.4042 26.4022 61.8204 26.4022C61.2365 26.4022 60.9283 26.8084 60.8472 27.0115V27.9865L62.9151 29.2051C63.199 29.2051 63.8639 29.3513 64.2532 29.9363C64.7397 30.6675 64.2532 31.3986 64.983 31.3986C65.7129 31.3986 65.7129 32.4954 66.1994 32.2517C66.5887 32.0567 67.9024 30.9518 68.5106 30.4237L69.8487 29.2051L71.3083 29.9363H72.768C73.0519 29.9363 73.7168 29.9363 74.1061 29.9363C74.4953 29.9363 75.4847 29.9363 75.9307 29.9363L76.7822 29.2051H77.3904H77.9986L77.3904 27.9865V26.4022L78.4851 25.4273L79.3366 24.9399C79.9854 24.9399 81.5018 24.9399 82.3777 24.9399C83.2535 24.9399 84.3644 24.9399 84.8105 24.9399C84.8105 25.2242 84.8105 25.9148 84.8105 26.4022C84.3239 27.6696 84.6077 28.7989 84.8105 29.2051L85.5403 29.9363C85.9052 29.7738 86.7081 29.5463 87 29.9363C87 31.1062 87 31.9673 87 32.2517C86.5134 32.3329 85.5403 32.5442 85.5403 32.7391C85.5403 32.9341 85.0537 33.3078 84.8105 33.4703C84.8105 33.6734 84.8105 34.2259 84.8105 34.8108C84.8105 36.8581 84.8105 38.3449 84.8105 38.8323H83.7157L82.3777 40.1728L81.2829 40.904L79.3366 42.0008V42.3294C79.3366 42.3011 79.3366 42.4395 79.3366 43.2194C79.3366 44.1943 78.9717 44.1943 78.4851 44.1943C78.0959 44.1943 77.1876 44.1943 76.7822 44.1943C76.4173 43.8694 75.5901 43.2194 75.2008 43.2194C74.7143 43.2194 74.1061 42.658 74.1061 42.3294C74.1061 42.0665 73.214 41.2696 72.768 40.904H71.7949C71.8355 40.4166 71.7949 39.5879 71.3083 40.1728C70.8218 40.7578 70.7001 41.8543 70.7001 42.3294C70.7001 42.3011 70.7001 42.4395 70.7001 43.2194C70.7001 44.1943 69.727 44.1943 69.3621 44.1943C69.0702 44.1943 68.6728 44.1943 68.5106 44.1943L67.0509 43.2194C67.0915 43.1911 67.0752 43.054 66.686 42.732C66.2967 42.4099 65.3885 41.3792 64.983 40.904H64.2532H62.9151C62.7124 40.4166 62.2583 39.5879 62.0636 40.1728C61.869 40.7578 61.3338 41.6352 61.0905 42.0008C60.7661 42.082 60.1174 42.342 60.1174 42.732C60.1174 43.2194 59.2659 42.2445 58.5361 43.2194C57.8062 44.1943 57.4413 44.1943 56.8331 44.1943C56.3465 44.1943 55.9005 44.1943 55.7383 44.1943C55.495 43.8288 55.0085 43.3169 55.0085 44.1943C55.0085 45.0718 55.495 45.9411 55.7383 46.266L56.8331 46.9972H58.5361V48.3377L60.1174 49.0689C60.3607 48.7845 60.8472 48.3865 60.8472 49.0689C60.8472 49.7513 60.3607 50.8156 60.1174 51.2624C59.9147 51.4249 59.4119 51.823 59.0226 52.1155C58.0495 53.2854 57.1575 53.6591 56.8331 53.6997H55.0085L54.0354 52.1155L51.7242 51.2624C51.3187 50.9781 50.5078 50.58 50.5078 51.2624C50.5078 52.1155 50.5078 52.2374 50.5078 52.9685C50.5078 53.5535 49.2914 55.0808 48.6832 55.7714C48.6832 56.0151 48.6832 56.6488 48.6832 57.2338C48.6832 57.8187 48.3588 59.1836 48.1966 59.7929C47.8722 59.7117 47.3208 59.6954 47.71 60.2804C48.0993 60.8653 48.521 61.5802 48.6832 61.8646C48.6832 61.9458 48.6832 62.2302 48.6832 62.7176C48.6832 63.2051 48.6832 63.8957 48.6832 64.18C48.8454 64.4237 49.2184 64.9843 49.413 65.2768C49.6563 65.6424 50.5078 65.5205 50.5078 66.008C50.5078 66.4954 50.7511 66.3736 51.4809 67.3485C52.0648 68.1284 53.0217 69.4608 53.4272 70.0295C53.6299 69.9482 54.0354 69.9564 54.0354 70.6388C54.0354 71.4918 54.157 71.4918 52.9406 72.1012C51.7242 72.7105 50.1429 73.3198 49.413 73.3198C48.4399 73.8072 46.9802 74.0916 46.372 74.1728H45.3989L43.9392 74.904C43.8986 74.6197 43.7446 74.2216 43.4526 74.904C43.0877 75.7571 42.4795 76.0008 42.2362 76.6101C42.2362 78.0725 42.3984 79.6567 42.4795 80.266H43.4526C43.4526 80.5098 43.4526 81.1191 43.4526 81.6065C42.2362 82.7033 41.7496 81.6065 41.2631 81.6065C40.8738 81.6065 40.0467 81.6065 39.6818 81.6065L37.8571 79.9004V79.1693C38.1004 79.0068 38.441 78.5843 37.8571 78.1943C37.1273 77.7069 36.1542 76.6101 35.546 76.6101C35.0594 76.6101 34.1268 74.9853 33.7214 74.1728V73.3198L32.8699 72.1012L31.0453 73.3198C30.9236 73.2385 30.6074 73.1248 30.3154 73.3198C29.9505 73.5635 29.7072 73.4417 29.2207 73.8072C28.7341 74.1728 28.1259 74.5384 27.8826 73.3198C26.7878 73.3198 26.6662 73.4417 26.4229 74.1728C25.6444 75.3427 24.7199 75.6352 24.355 75.6352C24.1117 75.7571 23.6495 76.1227 23.7468 76.6101C23.8441 77.0976 24.1928 77.8694 24.355 78.1943L23.7468 79.1693C23.5846 78.9255 23.2359 78.5843 23.1386 79.1693C23.017 79.9004 23.2603 78.3162 24.355 80.266C25.2308 82.2158 25.1254 83.1908 24.9632 83.4345C24.7605 83.5564 24.355 83.8732 24.355 84.1657C24.355 84.4581 23.9496 84.775 23.7468 84.8969C23.7874 84.8969 23.7225 84.8969 23.1386 84.8969C22.5547 84.8969 21.3545 84.4094 20.8274 84.1657C20.5031 83.9219 19.8057 83.5807 19.611 84.1657C19.4164 84.7506 20.3409 85.4656 20.8274 85.7499C20.5031 85.9124 20.2436 86.2374 21.8006 86.2374C25.9364 86.2374 25.6931 86.3592 26.4229 86.7248C27.1528 87.0904 27.5177 86.7248 28.3692 86.7248C29.3423 86.7248 31.3696 87.9434 32.2617 88.5528C32.5455 88.9184 33.0645 89.7227 32.8699 90.0151C32.6266 90.3807 33.7214 90.5026 33.7214 91.3556C36.0325 91.3556 37.8571 90.99 37.8571 90.7463C37.8571 90.5026 38.7086 90.0151 39.1952 90.0151C39.6818 90.0151 41.1414 91.4775 40.4116 92.2087C39.1952 93.671 39.1952 93.7929 39.1952 94.4022C39.1952 95.0115 38.8303 94.646 38.3437 95.6209C37.0057 97.327 37.9788 97.0832 36.7624 98.0581C35.546 99.0331 35.4243 99.2768 34.8161 99.7642C33.2591 100.739 31.9778 100.739 31.5318 100.617L30.6803 100.983C30.1938 101.105 29.2207 101.373 29.2207 101.47C29.2207 101.568 28.653 100.942 28.3692 100.617C28.4097 100.577 28.3692 100.593 27.8826 100.983C27.2744 101.47 26.4229 102.08 26.4229 102.445C26.4229 102.738 26.0174 103.298 25.8147 103.542L23.9901 101.836C23.7063 101.592 23.1386 101.178 23.1386 101.47C23.1386 101.836 22.7737 101.227 22.2871 101.836C21.8979 102.323 21.1518 102.039 20.8274 101.836C20.6247 101.308 20.0976 100.325 19.611 100.617C19.0028 100.983 18.5163 101.47 18.0297 101.47C17.5431 101.47 17.2999 101.227 16.57 101.836C15.9861 102.323 14.4616 102.039 13.7723 101.836L12.4342 101.47H10.6096C10.5285 101.714 10.196 102.128 9.51485 101.836C8.66337 101.47 8.78501 100.617 7.69024 100.617C6.59547 100.617 6.10891 101.105 5.86563 100.617C5.62235 100.13 5.01414 99.3986 5.25743 98.9112C4.77086 97.7413 4.64922 95.7427 4.64922 94.8897L2.94625 94.4022L1 95.6209Z" stroke="var(--stroke-0, black)" stroke-width="2"/>
</svg>
