<svg preserveAspectRatio="none" width="100%" height="100%" overflow="visible" style="display: block;" viewBox="0 0 141.584 136.137" fill="#D4C8B8" xmlns="http://www.w3.org/2000/svg">
<path id="Vector 96" d="M23.4978 132.702L24.9571 135L27.5109 134.395L29.8215 132.702L31.4025 130.767L31.8889 128.953L31.4025 127.956V126.051V123.511L34.3211 110.57L35.902 107.547V104.04L35.0507 102.347V98.5975V93.3971L34.3211 90.6155L37.4829 89.8899L38.3342 89.0433V81.787L41.6177 80.0939L44.1715 77.0704V73.8051L43.3202 71.7491V70.056L45.6308 68.2419L47.3333 70.056L49.2791 71.1444L51.3465 72.5957V75.7401L50.252 78.5217L54.3867 81.787L55.7244 84.6895L60.9536 87.1083L62.4129 90.6155L63.2642 89.0433V87.1083V84.6895L60.9536 83.3592V82.3917H61.8049L62.4129 81.787L63.2642 80.9404V80.0939L62.4129 78.5217H61.8049L60.9536 77.6751L61.8049 76.4657L66.1829 75.7401L69.1015 73.8051L73.8443 76.4657L76.8845 73.8051L80.6544 71.7491L83.8163 69.0884L86.2485 68.2419L88.8023 66.1859L90.9912 63.8881L92.8154 59.8971V56.9946L96.3421 56.0271L101.085 56.9946L103.031 57.8412L108.381 56.0271L112.881 55.0596L116.286 53.8502L118.475 51.6733L120.299 49.6173L122.61 47.8032L125.893 46.5939V44.5379V41.1516L126.501 39.5794L125.893 38.37L128.447 32.9278L129.906 30.9928L132.947 30.1462L135.865 28.8159L137.811 26.639L140 25.4296L129.906 14.1823H128.447L126.501 15.0289V17.6895L125.893 18.5361V20.4711C125.447 20.7533 124.556 21.5112 124.556 22.2852V23.2527L125.893 24.2202L121.88 25.4296L117.259 24.2202H115.435L113.732 23.2527H112.881H111.908C111.746 22.769 111.324 21.3419 110.935 19.5036C110.643 18.7296 110.408 18.5361 110.327 18.5361C109.679 18.5361 108.26 18.3668 107.773 17.6895C107.287 17.0123 107.084 16.6011 107.044 16.4801V15.0289C106.841 14.6258 106.436 13.626 106.436 12.852V11.6426C106.638 11.3201 107.19 10.5542 107.773 10.0704C108.503 9.4657 109.233 8.74007 109.233 8.13538V6.92599L108.381 6.44224H107.044V5.59567L107.773 4.87004L109.598 3.78159L107.773 1.96751H106.436H104.855L103.76 1H103.031H101.085H100.355L99.1391 1.96751V3.05596L98.4127 4.87004H97.923L96.9501 3.78159H96.3421H94.7612V4.87004L93.9099 5.59567L92.8154 6.44224H91.7209H90.748H89.7752H88.1942V5.59567V4.87004L87.343 3.78159L86.1269 4.87004L85.5188 6.44224V8.13538V10.0704L82.4786 12.852L80.2896 15.0289L79.4383 17.6895L78.7087 18.5361L77.8574 19.5036V20.4711L76.8845 21.3177C76.5197 21.0355 75.6441 20.2776 75.0604 19.5036C74.4766 18.7296 74.8171 18.5361 75.0604 18.5361L74.4523 16.4801C74.3307 15.9964 74.0388 15.0289 73.8443 15.0289H72.5066L71.1689 16.4801L70.0744 17.6895L69.1015 18.5361H68.2502L67.1557 19.5036L65.5748 20.4711L66.1829 22.2852L65.5748 23.2527L64.9668 22.2852L63.2642 21.3177L61.8049 22.2852L60.3456 24.2202V25.4296V27.4856H59.4943L57.7918 28.8159L56.4541 30.1462L55.7244 30.9928V32.9278V34.0162L54.3867 34.8628L53.1706 35.8303H51.9545C51.5086 35.5078 50.5438 34.6935 50.252 34.0162C49.9601 33.339 49.4818 33.7341 49.2791 34.0162L47.3333 34.8628L45.6308 35.8303L43.3202 37.0397L41.6177 38.9747V41.1516L42.3473 42.9657L40.0367 45.1426V46.9567V48.287V50.343V51.6733V53.1245L38.3342 55.0596V56.0271V56.9946V58.6877V59.8971V61.7112L37.4829 62.3159L36.9965 63.8881V65.2184V66.9116L35.902 68.2419L33.2266 67.5162H31.4025L30.4296 66.9116L28.8486 66.065H27.5109L25.0787 65.2184H24.2275H22.8898H21.7953H20.4576L19.3631 63.8881H18.6334C18.6334 63.5253 18.5118 62.7996 18.0254 62.7996H17.0525H15.4716H13.8906H11.9449L10.972 61.7112H8.66142H6.83727L6.10761 62.7996L6.83727 66.065L4.28346 66.9116L2.33771 69.5722L3.67542 70.5397L4.28346 69.5722H6.10761H6.83727L7.93176 70.5397L6.83727 72.5957L6.10761 74.0469L6.83727 75.6191L7.93176 76.4657V77.5542H6.83727H5.01312H4.28346H3.67542L2.33771 78.6426L3.67542 80.0939V80.8195L2.33771 81.9079H1V83.4801V84.3267V86.5036V87.5921V89.0433L2.33771 90.2527L3.67542 91.583L5.01312 92.5505L6.10761 93.3971V94.6065V96.0578V97.2672V98.5975L6.83727 99.565L7.93176 100.774L8.66142 101.379L9.99913 102.347H10.972H11.9449L12.7962 102.951H13.8906L14.7419 102.347L16.0796 100.774L18.0254 101.379L18.6334 102.951V104.04L18.0254 105.249V107.547V108.756L19.3631 110.57H18.6334L18.0254 112.022V113.715L17.0525 115.287L18.0254 116.738L18.6334 117.948V119.157L17.0525 120.245V122.06V123.511V124.599L15.4716 126.051V128.469V130.767L17.0525 131.493L18.6334 132.702L20.7008 131.493L23.4978 132.702Z" stroke="var(--stroke-0, black)" stroke-width="2"/>
</svg>
