<svg preserveAspectRatio="none" width="100%" height="100%" overflow="visible" style="display: block;" viewBox="0 0 70.6589 88.9999" fill="#E8E0D0" xmlns="http://www.w3.org/2000/svg">
<path id="Vector 95" d="M3.53022 71.3106L1.3484 68.65C1.55042 68.4484 2.09991 67.7308 2.68173 66.4731C3.04537 66.1103 3.53022 65.7475 3.53022 65.1428V62.6031V57.8865V55.5887C3.53022 54.8147 4.3383 54.2987 4.74234 54.1375L6.56052 51.9606C6.3585 51.1544 5.95446 49.4451 5.95446 49.0581V47.9697H9.22719C10.8029 47.9697 9.83325 46.6394 9.59082 45.309C9.3484 43.9787 8.49991 44.2206 7.65143 43.3741C6.80294 42.5275 7.65143 41.8019 7.65143 41.3181C7.65143 40.8344 8.62112 41.3181 9.22719 41.8019C9.83325 42.2856 11.409 43.3741 12.3787 43.3741C13.3484 43.3741 14.4393 43.3741 15.2878 42.7694C15.9666 42.2856 15.5706 41.9228 15.2878 41.8019C15.6514 41.439 16.7666 40.399 18.3181 39.1412C18.9969 39.1412 18.6009 38.1737 18.3181 37.69C18.1565 37.5691 17.7605 37.2546 17.4696 36.9644C17.106 36.6016 17.106 36.2388 17.4696 35.1503C17.7605 34.2796 18.1565 34.3037 18.3181 34.4247C18.8433 35.0294 19.9908 36.0211 20.3787 35.1503C20.8635 34.0619 21.2272 35.1503 22.0757 34.4247C22.7545 33.8442 22.6817 34.0216 22.5605 34.1828C22.8433 33.9409 23.6514 33.1911 24.6211 32.1269C25.8332 30.7966 25.712 31.6431 25.712 31.0384C25.712 30.5547 28.2171 30.8369 29.4696 31.0384C29.2676 30.3934 28.6696 28.9825 27.8939 28.4987C26.9242 27.894 26.5605 29.1034 25.712 28.4987C24.8635 27.894 23.409 28.015 23.409 27.2894C23.409 26.5638 23.5302 26.3219 24.015 25.3544L24.0151 25.3544C24.4999 24.3869 25.106 24.5078 25.712 24.5078H27.1666C27.6514 24.5078 30.1969 23.9031 32.4999 22.0891C32.8635 21.4844 32.9848 21.1216 32.9848 20.5169V19.0656V18.2191C33.1464 18.0175 33.6151 17.3483 34.1969 16.2841C34.7787 15.2198 34.9242 15.8406 34.9242 16.2841L36.8635 19.0656C37.712 19.1059 39.506 19.1624 39.8939 19.0656C40.3787 18.9447 41.712 18.2191 42.6817 17.6144C43.6514 17.0097 42.6817 16.2841 41.3484 14.1072C40.9848 12.7769 41.3484 13.3816 41.3484 12.7769V12.1722V11.4466L41.712 10.9628C42.0353 10.9628 42.6817 10.7935 42.6817 10.1163V9.14876C42.7221 8.86657 43.1181 8.15708 44.3787 7.57658C44.9605 6.99608 45.1868 7.0122 45.2272 7.09283L46.3181 6.60907L47.8939 5.64158L48.3787 4.4322C48.3787 4.1097 48.7423 3.05352 50.1969 1.40877C50.6817 0.731518 51.3686 1.04596 51.6514 1.28783C52.0555 1.8522 52.8635 3.0777 52.8635 3.4647C52.8635 3.94845 51.6514 5.3997 51.2878 5.64158C50.9242 5.88345 50.6817 6.48814 51.2878 7.09283C51.7726 7.57658 51.7322 7.61689 51.6514 7.57658L52.8635 8.3022C52.6615 8.66501 52.1363 9.53576 51.6514 10.1163C51.1666 10.6968 50.8029 10.3581 50.6817 10.1163H49.5908C49.3888 9.99532 48.8635 9.82601 48.3787 10.1163C47.8939 10.4065 47.8534 10.8016 47.8939 10.9628L48.3787 12.1722V12.7769C48.1363 13.2203 47.5302 14.1072 47.0454 14.1072C46.4393 14.1072 45.9545 13.7444 45.9545 14.1072C45.9545 14.47 45.2272 15.0747 45.9545 15.4375C46.5363 15.7278 46.1969 16.1228 45.9545 16.2841C45.9949 16.7275 46.0514 17.7353 45.9545 18.2191C45.8575 18.7028 45.4292 19.5494 45.2272 19.9122C45.2676 20.4766 46.1969 22.1858 49.5908 24.5078C50.0757 24.7497 50.6817 25.8381 50.6817 26.3219V29.1034L51.6514 31.0384V31.6431L52.8635 32.1269V33.4572C53.3888 33.6991 54.706 34.1828 55.7726 34.1828C56.3787 34.1828 56.7423 34.1828 57.5908 35.1503C58.2696 35.9243 58.5201 35.4728 58.5605 35.1503L59.2878 34.1828C59.4898 33.6991 60.0878 32.7316 60.8635 32.7316C60.8635 32.9251 61.9949 33.2959 62.5605 33.4572C62.6413 33.8603 62.9484 34.7633 63.5302 35.1503C64.112 35.5373 63.7726 36.0372 63.5302 36.2388C63.2878 36.4806 62.8029 37.1095 62.8029 37.69C62.8029 38.4156 62.5605 38.5366 62.5605 39.1412C62.5605 39.7459 62.8029 40.7134 63.5302 41.3181C64.112 41.8019 64.0959 42.4872 64.0151 42.7694L62.8029 43.3741L62.5605 44.2206L62.8029 45.7928L61.9545 47.9697L63.5302 50.1466V51.3559L62.5605 51.9606L61.9545 52.4444C61.5908 52.8475 60.8635 53.7505 60.8635 54.1375C60.8635 54.5245 61.5908 55.2662 61.9545 55.5887V57.2819L60.8635 57.8865C60.5403 58.209 59.8939 58.975 59.8939 59.4587V61.2728V62.6031L60.8635 63.5706L61.9545 64.2962H63.5302L65.106 63.5706L67.7726 64.2962L69.3484 67.0778L66.6817 69.0128L67.2878 74.2131L67.0454 77.2365H62.8029L59.8939 75.9062H54.4393L50.0757 76.5109L49.106 75.9062L47.409 80.0181L43.2878 85.944H35.5302L32.2575 86.7906L29.106 85.944L25.4696 88H20.9848L17.712 86.7906L14.9242 83.0415L13.4696 80.0181L10.6817 78.9296L10.0757 75.9062L12.1363 74.5759L10.6817 71.7943L8.98476 70.585L6.56052 71.3106H3.53022Z" stroke="var(--stroke-0, black)" stroke-width="2"/>
</svg>
