<svg preserveAspectRatio="none" width="100%" height="100%" overflow="visible" style="display: block;" viewBox="0 0 113.911 98.8098" fill="#E8C4B8" xmlns="http://www.w3.org/2000/svg">
<path id="Vector 94" d="M3.1036 90.7303L1.64945 93.5181H5.52718L8.79902 94.8515H12.7979L18.4933 95.5788L19.8263 97.3969L24.9158 93.5181L30.1265 97.3969L34.3678 96.6697L35.5796 93.0333L38.2455 92.306L40.6691 93.5181L44.9104 95.5788L47.9398 94.8515H50.4846L53.8776 93.5181H55.5741C55.8569 93.5181 56.5678 93.4212 57.1495 93.0333C57.8765 92.5485 58.4824 93.3969 59.0883 93.0333C59.573 92.7424 60.2597 92.4272 60.5425 92.306L62.4813 91.2151L64.299 90.1242L64.7837 88.5485V86.7303V84.306V82.8515V81.7606V79.9424L65.9955 76.6697C66.2379 76.1848 66.7711 75.2151 66.965 75.2151C67.1588 75.2151 67.4497 74.3262 67.5708 73.8818L68.6615 72.306V71.2151V70.003H69.7521H70.7215H72.0545V68.5485L70.7215 66.2454L69.7521 65.1545V63.3363L74.2357 66.2454C75.2859 66.2454 77.3864 65.8818 77.3864 64.4272C77.3864 62.9727 78.275 63.0939 78.7193 63.3363L80.0523 61.0333V59.5788L78.7193 58.1242L80.0523 56.4272L82.4759 58.1242C83.0818 57.5585 84.5359 56.4272 85.5054 56.4272C86.4748 56.4272 86.7171 54.8111 86.7171 54.003H87.8077H88.7772H91.0796V53.0333L89.8678 51.3363H87.8077L86.7171 49.8818H85.5054H84.2936V48.9121L85.5054 47.8212L86.7171 46.3666H87.8077C88.8984 46.3666 91.4431 46.2212 92.8973 45.6394C94.3514 45.0575 93.9879 43.8616 93.6243 43.3363V41.6394L94.5938 39.4575L96.0479 38.4878L97.8656 40.9121L98.7139 41.6394H101.137L101.986 40.9121L104.046 39.4575L101.986 37.0333V33.8818L104.046 32.5484V30.4878C105.177 29.9222 107.705 28.5727 108.772 27.7C109.838 26.8272 109.216 25.2353 108.772 24.5484L107.439 23.5788C108.287 23.0939 110.153 22.003 110.832 21.5181C111.51 21.0333 112.326 20.8313 112.649 20.7909L111.68 17.1545V16.306L109.984 14.8515C109.337 14.8515 107.923 14.4878 107.439 13.0333C106.954 11.5788 106.106 12.4272 105.742 13.0333L104.046 16.306H101.986L100.532 17.1545H98.7139L97.8656 14.8515L96.0479 13.0333L94.5938 16.306C93.5436 16.306 91.3704 16.0151 91.0796 14.8515C90.716 13.3969 88.7772 14.8515 87.8077 14.8515H85.5054V13.0333C84.6167 13.0333 82.5728 12.8394 81.5064 12.0636C80.1735 11.0939 81.5064 9.63936 81.5064 8.18481V6.60905L80.0523 7.57875C79.4868 7.78077 78.1619 8.0636 77.3864 7.57875C76.6108 7.0939 76.4977 7.78077 76.5381 8.18481L74.2357 10.7303C73.8318 9.88178 72.83 8.18481 72.0545 8.18481H70.6003H69.6309H68.6615H67.2073H65.7532L64.0567 9.63936L62.3602 8.18481L60.6636 6.60905L58.1189 8.18481L56.7859 6.60905L54.8471 8.18481V6.60905L53.2717 5.15451V2.60905L51.5752 1.39693L48.9093 5.15451L46.001 8.18481V10.7303L44.0621 13.0333L42.2444 16.306L41.275 20.7909L38.4879 26.3666H35.5796L31.823 24.5484V27.7L35.5796 28.7909L38.4879 32.5484V39.4575V43.3363V46.3666L35.5796 53.0333L31.823 56.4272V61.0333L29.3995 66.2454L26.37 67.5788H22.8558V70.003L19.8263 72.306V75.2151L15.585 80.7909L9.76845 83.9424L4.55775 87.0939L3.1036 90.7303Z" stroke="var(--stroke-0, black)" stroke-width="2"/>
</svg>
